<mxfile host="app.diagrams.net" agent="Mozilla/5.0 (Windows NT 10.0; Win64; x64) AppleWebKit/537.36 (KHTML, like Gecko) Chrome/135.0.0.0 Safari/537.36" version="26.2.14">
  <diagram id="C5RBs43oDa-KdzZeNtuy" name="Page-1">
    <mxGraphModel dx="872" dy="1642" grid="1" gridSize="10" guides="1" tooltips="1" connect="1" arrows="1" fold="1" page="1" pageScale="1" pageWidth="827" pageHeight="1169" math="0" shadow="0">
      <root>
        <mxCell id="WIyWlLk6GJQsqaUBKTNV-0" />
        <mxCell id="WIyWlLk6GJQsqaUBKTNV-1" parent="WIyWlLk6GJQsqaUBKTNV-0" />
        <mxCell id="01mAIJ8erOxr0waYenT8-1" value="start" style="strokeWidth=2;html=1;shape=mxgraph.flowchart.start_1;whiteSpace=wrap;" vertex="1" parent="WIyWlLk6GJQsqaUBKTNV-1">
          <mxGeometry x="225" y="-1110" width="100" height="60" as="geometry" />
        </mxCell>
        <mxCell id="01mAIJ8erOxr0waYenT8-2" value="" style="endArrow=classic;html=1;rounded=0;" edge="1" parent="WIyWlLk6GJQsqaUBKTNV-1">
          <mxGeometry width="50" height="50" relative="1" as="geometry">
            <mxPoint x="274.5" y="-1050" as="sourcePoint" />
            <mxPoint x="274.5" y="-990" as="targetPoint" />
            <Array as="points">
              <mxPoint x="274.5" y="-1020" />
            </Array>
          </mxGeometry>
        </mxCell>
        <mxCell id="01mAIJ8erOxr0waYenT8-4" value="" style="endArrow=classic;html=1;rounded=0;" edge="1" parent="WIyWlLk6GJQsqaUBKTNV-1">
          <mxGeometry width="50" height="50" relative="1" as="geometry">
            <mxPoint x="274.5" y="-930" as="sourcePoint" />
            <mxPoint x="274.5" y="-870" as="targetPoint" />
            <Array as="points">
              <mxPoint x="274.5" y="-900" />
            </Array>
          </mxGeometry>
        </mxCell>
        <mxCell id="01mAIJ8erOxr0waYenT8-13" value="" style="edgeStyle=orthogonalEdgeStyle;rounded=0;orthogonalLoop=1;jettySize=auto;html=1;" edge="1" parent="WIyWlLk6GJQsqaUBKTNV-1">
          <mxGeometry relative="1" as="geometry">
            <mxPoint x="355" y="-830" as="sourcePoint" />
            <mxPoint x="400" y="-780" as="targetPoint" />
          </mxGeometry>
        </mxCell>
        <mxCell id="01mAIJ8erOxr0waYenT8-10" value="" style="endArrow=classic;html=1;rounded=0;exitX=0;exitY=0.5;exitDx=0;exitDy=0;exitPerimeter=0;" edge="1" parent="WIyWlLk6GJQsqaUBKTNV-1" source="01mAIJ8erOxr0waYenT8-16">
          <mxGeometry width="50" height="50" relative="1" as="geometry">
            <mxPoint x="190" y="-830" as="sourcePoint" />
            <mxPoint x="150" y="-780" as="targetPoint" />
            <Array as="points">
              <mxPoint x="150" y="-830" />
            </Array>
          </mxGeometry>
        </mxCell>
        <mxCell id="01mAIJ8erOxr0waYenT8-11" value="stop" style="strokeWidth=2;html=1;shape=mxgraph.flowchart.start_1;whiteSpace=wrap;" vertex="1" parent="WIyWlLk6GJQsqaUBKTNV-1">
          <mxGeometry x="210" y="-570" width="100" height="60" as="geometry" />
        </mxCell>
        <mxCell id="01mAIJ8erOxr0waYenT8-15" value="enter number" style="shape=parallelogram;html=1;strokeWidth=2;perimeter=parallelogramPerimeter;whiteSpace=wrap;rounded=1;arcSize=12;size=0.23;" vertex="1" parent="WIyWlLk6GJQsqaUBKTNV-1">
          <mxGeometry x="210" y="-990" width="130" height="60" as="geometry" />
        </mxCell>
        <mxCell id="01mAIJ8erOxr0waYenT8-16" value="if&lt;div&gt;number%2==0&lt;/div&gt;" style="strokeWidth=2;html=1;shape=mxgraph.flowchart.decision;whiteSpace=wrap;" vertex="1" parent="WIyWlLk6GJQsqaUBKTNV-1">
          <mxGeometry x="195" y="-870" width="160" height="80" as="geometry" />
        </mxCell>
        <mxCell id="01mAIJ8erOxr0waYenT8-17" value="display&lt;div&gt;&quot;even&quot;&lt;/div&gt;" style="shape=parallelogram;html=1;strokeWidth=2;perimeter=parallelogramPerimeter;whiteSpace=wrap;rounded=1;arcSize=12;size=0.23;" vertex="1" parent="WIyWlLk6GJQsqaUBKTNV-1">
          <mxGeometry x="95" y="-780" width="100" height="60" as="geometry" />
        </mxCell>
        <mxCell id="01mAIJ8erOxr0waYenT8-18" value="display&lt;div&gt;&quot;odd&quot;&lt;/div&gt;" style="shape=parallelogram;html=1;strokeWidth=2;perimeter=parallelogramPerimeter;whiteSpace=wrap;rounded=1;arcSize=12;size=0.23;" vertex="1" parent="WIyWlLk6GJQsqaUBKTNV-1">
          <mxGeometry x="350" y="-780" width="100" height="60" as="geometry" />
        </mxCell>
        <mxCell id="01mAIJ8erOxr0waYenT8-19" value="yes" style="text;html=1;align=center;verticalAlign=middle;resizable=0;points=[];autosize=1;strokeColor=none;fillColor=none;" vertex="1" parent="WIyWlLk6GJQsqaUBKTNV-1">
          <mxGeometry x="150" y="-860" width="40" height="30" as="geometry" />
        </mxCell>
        <mxCell id="01mAIJ8erOxr0waYenT8-20" value="no" style="text;html=1;align=center;verticalAlign=middle;resizable=0;points=[];autosize=1;strokeColor=none;fillColor=none;" vertex="1" parent="WIyWlLk6GJQsqaUBKTNV-1">
          <mxGeometry x="360" y="-860" width="40" height="30" as="geometry" />
        </mxCell>
        <mxCell id="01mAIJ8erOxr0waYenT8-21" value="" style="endArrow=classic;html=1;rounded=0;exitX=0;exitY=0.5;exitDx=0;exitDy=0;exitPerimeter=0;" edge="1" parent="WIyWlLk6GJQsqaUBKTNV-1">
          <mxGeometry width="50" height="50" relative="1" as="geometry">
            <mxPoint x="400" y="-720" as="sourcePoint" />
            <mxPoint x="270" y="-580" as="targetPoint" />
            <Array as="points">
              <mxPoint x="400" y="-620" />
              <mxPoint x="270" y="-620" />
            </Array>
          </mxGeometry>
        </mxCell>
        <mxCell id="01mAIJ8erOxr0waYenT8-22" value="" style="endArrow=none;html=1;rounded=0;" edge="1" parent="WIyWlLk6GJQsqaUBKTNV-1">
          <mxGeometry width="50" height="50" relative="1" as="geometry">
            <mxPoint x="270" y="-620" as="sourcePoint" />
            <mxPoint x="150" y="-720" as="targetPoint" />
            <Array as="points">
              <mxPoint x="150" y="-620" />
              <mxPoint x="150" y="-670" />
            </Array>
          </mxGeometry>
        </mxCell>
      </root>
    </mxGraphModel>
  </diagram>
</mxfile>
